<svg width="18" height="16" viewBox="0 0 18 16" fill="none" xmlns="http://www.w3.org/2000/svg">
<g clip-path="url(#clip0_64_347)">
<path d="M17.0051 4.70404C16.9674 3.8539 16.8292 3.26944 16.6313 2.76299C16.427 2.22541 16.1128 1.74411 15.7012 1.34401C15.299 0.937683 14.812 0.621948 14.2779 0.421957C13.7658 0.22502 13.1814 0.0875415 12.3268 0.0500586C11.4658 0.00940124 11.1925 0 9.00879 0C6.82512 0 6.55179 0.00940124 5.694 0.0468842C4.83941 0.0843671 4.25189 0.221967 3.74291 0.418783C3.20239 0.621948 2.71858 0.934509 2.31638 1.34401C1.90792 1.74411 1.59066 2.22858 1.3895 2.75994C1.19153 3.26944 1.05333 3.85073 1.01565 4.70087C0.974782 5.55736 0.965332 5.82926 0.965332 8.00156C0.965332 10.1739 0.974782 10.4458 1.01246 11.2991C1.05014 12.1492 1.18846 12.7337 1.38643 13.2401C1.59066 13.7777 1.90792 14.259 2.31638 14.6591C2.71858 15.0654 3.20558 15.3812 3.73972 15.5812C4.25189 15.7781 4.83622 15.9156 5.69094 15.9531C6.5486 15.9907 6.82205 15.9999 9.00572 15.9999C11.1894 15.9999 11.4627 15.9907 12.3205 15.9531C13.1751 15.9156 13.7626 15.7781 14.2716 15.5812C15.3525 15.1654 16.2071 14.3153 16.625 13.2401C16.8229 12.7306 16.9612 12.1492 16.9989 11.2991C17.0365 10.4458 17.046 10.1739 17.046 8.00156C17.046 5.82926 17.0428 5.55736 17.0051 4.70404ZM15.5567 11.2366C15.5221 12.018 15.3902 12.4399 15.2802 12.7212C15.01 13.4183 14.4539 13.9715 13.7532 14.2403C13.4704 14.3497 13.0432 14.481 12.2607 14.5153C11.4124 14.5529 11.158 14.5622 9.01198 14.5622C6.86599 14.5622 6.60837 14.5529 5.7631 14.5153C4.97761 14.481 4.55344 14.3497 4.27067 14.2403C3.92198 14.1121 3.60459 13.909 3.34697 13.6433C3.07991 13.3838 2.87568 13.0713 2.74681 12.7244C2.63684 12.4431 2.5049 12.018 2.47041 11.2397C2.43261 10.3958 2.42328 10.1426 2.42328 8.00779C2.42328 5.87297 2.43261 5.6167 2.47041 4.77596C2.5049 3.99455 2.63684 3.5726 2.74681 3.29129C2.87568 2.9443 3.07991 2.62869 3.35016 2.37229C3.61085 2.10661 3.92505 1.90345 4.27386 1.77537C4.55663 1.66597 4.98399 1.53472 5.76629 1.50029C6.61463 1.46281 6.86918 1.45341 9.01505 1.45341C11.1642 1.45341 11.4187 1.46281 12.2639 1.50029C13.0494 1.53472 13.4736 1.66597 13.7564 1.77537C14.105 1.90345 14.4224 2.10661 14.6801 2.37229C14.9471 2.63174 15.1513 2.9443 15.2802 3.29129C15.3902 3.5726 15.5221 3.99761 15.5567 4.77596C15.5944 5.61987 15.6039 5.87297 15.6039 8.00779C15.6039 10.1426 15.5944 10.3927 15.5567 11.2366Z" fill="white"/>
<path d="M9.00865 3.89136C6.72765 3.89136 4.87695 5.73229 4.87695 8.00153C4.87695 10.2708 6.72765 12.1117 9.00865 12.1117C11.2898 12.1117 13.1403 10.2708 13.1403 8.00153C13.1403 5.73229 11.2898 3.89136 9.00865 3.89136ZM9.00865 10.6677C7.52885 10.6677 6.32852 9.47375 6.32852 8.00153C6.32852 6.52932 7.52885 5.33536 9.00865 5.33536C10.4886 5.33536 11.6888 6.52932 11.6888 8.00153C11.6888 9.47375 10.4886 10.6677 9.00865 10.6677Z" fill="white"/>
<path d="M14.2686 3.72889C14.2686 4.25877 13.8367 4.68842 13.3039 4.68842C12.7713 4.68842 12.3394 4.25877 12.3394 3.72889C12.3394 3.19888 12.7713 2.76935 13.3039 2.76935C13.8367 2.76935 14.2686 3.19888 14.2686 3.72889Z" fill="white"/>
</g>
<defs>
<clipPath id="clip0_64_347">
<rect width="16.0838" height="16" fill="white" transform="translate(0.937012)"/>
</clipPath>
</defs>
</svg>
