<svg width="24" height="24" viewBox="0 0 24 24" fill="none" xmlns="http://www.w3.org/2000/svg">
<path d="M11.9 15.4C11.8 15.4 11.7 15.4 11.7 15.3L1.4 5.79997C1.3 5.69997 1 5.79998 1 5.99998V20.6C1 20.7 1.1 20.8 1.2 20.8H22.5C22.6 20.8 22.7 20.7 22.7 20.6V5.99998C22.7 5.79998 22.5 5.69997 22.3 5.79997L12 15.3C12.1 15.4 12 15.4 11.9 15.4Z" fill="#4682A9"/>
<path d="M21.6001 4H2.30015C2.00015 4 1.90015 4.3 2.10015 4.5L11.7001 13.4C11.8001 13.5 12.0001 13.5 12.1001 13.4L21.7001 4.5C22.0001 4.4 21.9001 4 21.6001 4Z" fill="#4682A9"/>
</svg>
