<svg width="24" height="24" viewBox="0 0 24 24" fill="none" xmlns="http://www.w3.org/2000/svg">
<path d="M18.5161 3.47368C17.2529 1.36842 15.1477 0.105263 12.7266 0C12.4108 0 12.2003 0 11.8845 0C9.46345 0.105263 7.35819 1.36842 6.09503 3.47368C4.83187 5.57894 4.62135 8.21052 5.67398 10.421L11.9898 23.7895C12.095 23.8947 12.2003 24 12.3056 24C12.4108 24 12.5161 23.8947 12.6213 23.7895L18.9371 10.421C19.9898 8.21052 19.7792 5.57894 18.5161 3.47368ZM12.3056 10.5263C10.5161 10.5263 9.0424 9.05263 9.0424 7.26315C9.0424 5.47368 10.5161 4 12.3056 4C14.095 4 15.5687 5.47368 15.5687 7.26315C15.674 9.05263 14.2003 10.5263 12.3056 10.5263Z" fill="#4682A9"/>
</svg>
