<svg width="204" height="60" viewBox="0 0 204 60" fill="none" xmlns="http://www.w3.org/2000/svg">
<path d="M66.6612 57.973H64.4839V51.4865H66.705C67.3431 51.4865 67.8912 51.6162 68.349 51.8761C68.8092 52.1335 69.1626 52.5041 69.4096 52.9877C69.6562 53.4714 69.7799 54.0499 69.7799 54.7232C69.7799 55.3991 69.6554 55.9796 69.4064 56.4653C69.1594 56.951 68.8028 57.3235 68.3366 57.5834C67.8724 57.8432 67.3138 57.973 66.6612 57.973ZM65.6481 56.9562H66.6046C67.0524 56.9562 67.4258 56.8739 67.7246 56.7093C68.0238 56.5423 68.2487 56.2942 68.3992 55.965C68.5498 55.6334 68.6253 55.2195 68.6253 54.7232C68.6253 54.227 68.5498 53.8155 68.3992 53.488C68.2487 53.1588 68.0258 52.9127 67.731 52.7501C67.4383 52.5855 67.0744 52.5032 66.6391 52.5032H65.6481V56.9562ZM70.8858 57.973V51.4865H75.0646V52.4716H72.0496V54.2323H74.8481V55.2174H72.0496V56.9878H75.0895V57.973H70.8858ZM77.1114 51.4865L78.7836 56.5922H78.8498L80.5188 51.4865H81.7986L79.5337 57.973H78.0969L75.8348 51.4865H77.1114ZM82.6451 57.973V51.4865H86.8239V52.4716H83.8089V54.2323H86.6074V55.2174H83.8089V56.9878H86.8488V57.973H82.6451ZM88.0113 57.973V51.4865H89.1751V56.9878H92.005V57.973H88.0113ZM98.5065 54.7297C98.5065 55.4287 98.3768 56.0274 98.1174 56.5257C97.86 57.0219 97.5086 57.4018 97.0632 57.6657C96.6199 57.9296 96.1167 58.0618 95.5541 58.0618C94.9915 58.0618 94.4875 57.9296 94.0422 57.6657C93.5985 57.3997 93.2471 57.0187 92.9881 56.5224C92.7307 56.0242 92.6022 55.4266 92.6022 54.7297C92.6022 54.0308 92.7307 53.4332 92.9881 52.937C93.2471 52.4388 93.5985 52.0577 94.0422 51.7938C94.4875 51.5299 94.9915 51.3977 95.5541 51.3977C96.1167 51.3977 96.6199 51.5299 97.0632 51.7938C97.5086 52.0577 97.86 52.4388 98.1174 52.937C98.3768 53.4332 98.5065 54.0308 98.5065 54.7297ZM97.3363 54.7297C97.3363 54.2376 97.26 53.8228 97.107 53.4851C96.9564 53.145 96.7476 52.8884 96.4798 52.7153C96.2119 52.5401 95.9035 52.4526 95.5541 52.4526C95.2048 52.4526 94.8963 52.5401 94.6289 52.7153C94.361 52.8884 94.1506 53.145 93.998 53.4851C93.8474 53.8228 93.7723 54.2376 93.7723 54.7297C93.7723 55.2219 93.8474 55.6378 93.998 55.9776C94.1506 56.3153 94.361 56.5719 94.6289 56.7474C94.8963 56.9205 95.2048 57.0069 95.5541 57.0069C95.9035 57.0069 96.2119 56.9205 96.4798 56.7474C96.7476 56.5719 96.9564 56.3153 97.107 55.9776C97.26 55.6378 97.3363 55.2219 97.3363 54.7297ZM99.6068 57.973V51.4865H102.016C102.51 51.4865 102.924 51.5793 103.259 51.765C103.595 51.9511 103.849 52.2065 104.021 52.5316C104.194 52.8547 104.282 53.222 104.282 53.6339C104.282 54.0499 104.194 54.4192 104.021 54.7423C103.847 55.0654 103.591 55.32 103.252 55.5057C102.913 55.6893 102.496 55.7814 102.001 55.7814H100.404V54.8153H101.844C102.132 54.8153 102.369 54.7646 102.553 54.6632C102.737 54.5619 102.873 54.4224 102.961 54.2453C103.051 54.0677 103.096 53.8642 103.096 53.6339C103.096 53.4037 103.051 53.2009 102.961 53.0258C102.873 52.8507 102.736 52.7145 102.55 52.6172C102.366 52.5178 102.128 52.4684 101.838 52.4684H100.771V57.973H99.6068ZM105.292 57.973V51.4865H109.471V52.4716H106.456V54.2323H109.255V55.2174H106.456V56.9878H109.496V57.973H105.292ZM110.659 57.973V51.4865H113.068C113.562 51.4865 113.976 51.5732 114.31 51.7464C114.647 51.9195 114.902 52.1623 115.073 52.4745C115.247 52.785 115.333 53.147 115.333 53.561C115.333 53.9769 115.245 54.3381 115.07 54.6442C114.896 54.9482 114.64 55.1838 114.301 55.3504C113.962 55.515 113.546 55.5977 113.052 55.5977H111.336V54.6219H112.896C113.184 54.6219 113.421 54.5818 113.605 54.5015C113.789 54.4192 113.925 54.3 114.013 54.1439C114.102 53.9854 114.147 53.7912 114.147 53.561C114.147 53.3307 114.102 53.1345 114.013 52.9719C113.923 52.8073 113.786 52.6828 113.602 52.5981C113.417 52.5118 113.18 52.4684 112.889 52.4684H111.823V57.973H110.659ZM113.978 55.0338L115.569 57.973H114.27L112.707 55.0338H113.978ZM119.896 53.2695C119.867 52.993 119.744 52.7777 119.527 52.6236C119.311 52.4692 119.031 52.3922 118.686 52.3922C118.443 52.3922 118.235 52.4295 118.061 52.5032C117.888 52.577 117.755 52.6772 117.663 52.8041C117.571 52.9305 117.524 53.0753 117.521 53.2378C117.521 53.3732 117.552 53.4904 117.613 53.5893C117.675 53.6887 117.76 53.7734 117.867 53.8427C117.973 53.9104 118.092 53.9676 118.221 54.0138C118.351 54.0604 118.482 54.0993 118.613 54.1309L119.216 54.283C119.458 54.3401 119.692 54.4172 119.915 54.5145C120.141 54.6114 120.343 54.7338 120.521 54.8818C120.701 55.0297 120.843 55.2081 120.948 55.4169C121.052 55.6261 121.104 55.8709 121.104 56.1519C121.104 56.5318 121.008 56.8666 120.816 57.1557C120.623 57.4431 120.345 57.6677 119.981 57.8303C119.619 57.9908 119.181 58.0711 118.667 58.0711C118.167 58.0711 117.733 57.9928 117.365 57.8368C116.999 57.6807 116.712 57.4524 116.505 57.1528C116.3 56.8528 116.189 56.4876 116.173 56.0566H117.318C117.334 56.2828 117.403 56.4705 117.525 56.6205C117.646 56.7705 117.804 56.8824 117.999 56.9562C118.195 57.03 118.415 57.0673 118.657 57.0673C118.911 57.0673 119.132 57.0292 119.323 56.953C119.515 56.8751 119.665 56.7673 119.774 56.6299C119.883 56.4908 119.939 56.3282 119.941 56.1422C119.939 55.9735 119.889 55.8341 119.793 55.7242C119.697 55.6123 119.562 55.5195 119.388 55.4457C119.217 55.3695 119.016 55.3018 118.786 55.243L118.055 55.0528C117.526 54.9154 117.107 54.7074 116.8 54.4289C116.495 54.148 116.342 53.7754 116.342 53.3108C116.342 52.9285 116.444 52.5941 116.649 52.3066C116.856 52.0196 117.138 51.797 117.493 51.6385C117.849 51.478 118.252 51.3977 118.701 51.3977C119.157 51.3977 119.557 51.478 119.9 51.6385C120.245 51.797 120.516 52.0176 120.712 52.3005C120.909 52.5815 121.01 52.9042 121.016 53.2695H119.896Z" fill="#DBDBDB"/>
<path d="M92.7637 4.25671H200.787" stroke="#012863" stroke-width="3"/>
<path d="M92.7637 44.3918H200.787" stroke="#012863" stroke-width="3"/>
<path fill-rule="evenodd" clip-rule="evenodd" d="M87.1417 5.64868C87.1417 4.54411 86.2463 3.64868 85.1417 3.64868H2C0.895426 3.64868 0 4.54411 0 5.64868V43C0 44.1046 0.895431 45 2 45H85.1417C86.2463 45 87.1417 44.1046 87.1417 43V5.64868ZM4.88849 37.3244C4.88849 38.4289 5.78392 39.3244 6.88849 39.3244H14.7853C17.7514 39.3244 20.2898 38.7341 22.4003 37.5536C24.5204 36.3731 26.1414 34.6791 27.2632 32.4716C28.3945 30.2642 28.9602 27.6248 28.9602 24.5535C28.9602 21.4919 28.3993 18.8621 27.2774 16.6643C26.1556 14.4664 24.5489 12.782 22.4574 11.6111C20.3753 10.4306 17.8845 9.84032 14.9849 9.84032H6.88849C5.78392 9.84032 4.88849 10.7357 4.88849 11.8403V37.3244ZM14.5286 34.7031H12.1791C11.0745 34.7031 10.1791 33.8077 10.1791 32.7031V16.4616C10.1791 15.357 11.0745 14.4616 12.1791 14.4616H14.6854C16.6629 14.4616 18.3171 14.8359 19.6481 15.5845C20.9886 16.3236 22.001 17.4417 22.6856 18.9389C23.37 20.4265 23.7123 22.2981 23.7123 24.5535C23.7123 26.809 23.37 28.6901 22.6856 30.197C22.001 31.6942 20.9791 32.8219 19.6195 33.5802C18.26 34.3288 16.5631 34.7031 14.5286 34.7031ZM35.987 9.84032C34.8824 9.84032 33.987 10.7357 33.987 11.8403V37.3244C33.987 38.4289 34.8824 39.3244 35.987 39.3244H51.0958C52.2004 39.3244 53.0958 38.4289 53.0958 37.3244V36.8471C53.0958 35.7425 52.2004 34.8471 51.0958 34.8471H41.2776C40.1731 34.8471 39.2776 33.9516 39.2776 32.8471V28.7994C39.2776 27.6948 40.1731 26.7994 41.2776 26.7994H49.9979C51.1025 26.7994 51.9979 25.904 51.9979 24.7994V24.3221C51.9979 23.2175 51.1025 22.3221 49.9979 22.3221H41.2776C40.1731 22.3221 39.2776 21.4267 39.2776 20.3221V16.3177C39.2776 15.2131 40.1731 14.3177 41.2776 14.3177H50.9818C52.0863 14.3177 52.9818 13.4222 52.9818 12.3177V11.8403C52.9818 10.7357 52.0863 9.84032 50.9818 9.84032H35.987ZM70.0374 33.0475C69.9481 33.0475 69.8689 32.9901 69.8411 32.9052L62.7382 11.2178C62.4691 10.3961 61.7023 9.84032 60.8376 9.84032H59.2983C57.9215 9.84032 56.9565 11.1989 57.4098 12.4989L66.2968 37.9829C66.577 38.7862 67.3346 39.3244 68.1853 39.3244H71.8758C72.7262 39.3244 73.4836 38.7866 73.764 37.9837L82.6635 12.4997C83.1175 11.1996 82.1524 9.84032 80.7753 9.84032H79.2241C78.359 9.84032 77.592 10.3966 77.3231 11.2189L70.2338 32.9051C70.206 32.99 70.1268 33.0475 70.0374 33.0475Z" fill="#DBDBDB"/>
<path d="M101.585 39.3244H93.0283V9.84034H102.098C104.884 9.84034 107.265 10.4258 109.243 11.5967C111.229 12.7676 112.75 14.4472 113.806 16.6355C114.861 18.8238 115.389 21.4487 115.389 24.5104C115.389 27.6008 114.847 30.2546 113.763 32.4716C112.689 34.6791 111.12 36.3731 109.057 37.5536C107.004 38.7341 104.513 39.3244 101.585 39.3244ZM95.6952 36.9058H101.428C103.938 36.9058 106.039 36.4067 107.731 35.4085C109.423 34.4104 110.692 32.9851 111.539 31.1328C112.385 29.2804 112.807 27.0729 112.807 24.5104C112.798 21.967 112.38 19.7787 111.553 17.9456C110.735 16.1124 109.518 14.7064 107.902 13.7274C106.295 12.7484 104.309 12.2589 101.941 12.2589H95.6952V36.9058ZM124.519 9.84034V39.3244H121.852V9.84034H124.519ZM132.327 9.84034L141.453 35.826H141.71L150.837 9.84034H153.632L143.008 39.3244H140.156L129.531 9.84034H132.327ZM156.17 39.3244H153.375L163.999 9.84034H166.851L177.475 39.3244H174.68L165.525 13.3387H165.325L156.17 39.3244ZM158.181 28.0231H172.669V30.4417H158.181V28.0231ZM198.339 17.2113C198.177 15.5701 197.459 14.2649 196.185 13.2955C194.911 12.3262 193.309 11.8415 191.379 11.8415C190.02 11.8415 188.822 12.0766 187.786 12.5469C186.759 13.0172 185.951 13.6698 185.361 14.5048C184.781 15.3302 184.491 16.2708 184.491 17.3265C184.491 18.1039 184.658 18.7854 184.991 19.3708C185.323 19.9563 185.77 20.4602 186.331 20.8824C186.902 21.2951 187.529 21.6503 188.214 21.9478C188.908 22.2453 189.606 22.4949 190.31 22.6964L193.39 23.589C194.322 23.8481 195.253 24.1792 196.185 24.5824C197.117 24.9855 197.967 25.4941 198.738 26.1084C199.517 26.713 200.14 27.4569 200.606 28.3398C201.081 29.2132 201.319 30.2642 201.319 31.4927C201.319 33.0667 200.915 34.4823 200.107 35.7397C199.299 36.9969 198.139 37.9951 196.627 38.7341C195.115 39.4636 193.304 39.8283 191.194 39.8283C189.207 39.8283 187.482 39.4971 186.017 38.8349C184.553 38.1631 183.403 37.2369 182.566 36.0564C181.73 34.8759 181.259 33.5082 181.154 31.9534H183.893C183.987 33.1147 184.368 34.0985 185.034 34.9046C185.699 35.7108 186.564 36.3251 187.629 36.7474C188.693 37.1601 189.882 37.3665 191.194 37.3665C192.649 37.3665 193.941 37.1217 195.073 36.6322C196.213 36.1331 197.107 35.4421 197.754 34.5591C198.41 33.6665 198.738 32.63 198.738 31.4495C198.738 30.4514 198.481 29.6163 197.967 28.9445C197.454 28.2631 196.737 27.692 195.814 27.2313C194.901 26.7706 193.842 26.3627 192.634 26.0076L189.14 24.9711C186.849 24.28 185.071 23.3251 183.807 22.1062C182.543 20.8873 181.91 19.3325 181.91 17.4417C181.91 15.8581 182.329 14.4664 183.165 13.2667C184.012 12.0574 185.152 11.1168 186.588 10.445C188.033 9.76355 189.654 9.42285 191.451 9.42285C193.266 9.42285 194.873 9.75877 196.27 10.4306C197.668 11.1024 198.776 12.0286 199.593 13.2091C200.42 14.38 200.862 15.7141 200.919 17.2113H198.339Z" fill="#DBDBDB"/>
</svg>
